<?xml version="1.0" standalone="no"?>
<!DOCTYPE svg PUBLIC "-//W3C//DTD SVG 20010904//EN"
 "http://www.w3.org/TR/2001/REC-SVG-20010904/DTD/svg10.dtd">
<svg version="1.0" xmlns="http://www.w3.org/2000/svg"
 width="800.000000pt" height="800.000000pt" viewBox="0 0 800.000000 800.000000"
 preserveAspectRatio="xMidYMid meet">

<g transform="translate(0.000000,800.000000) scale(0.100000,-0.100000)"
fill="#000000" stroke="none">
<path d="M1540 4678 c-146 -13 -280 -79 -396 -194 -58 -57 -81 -90 -117 -165
-56 -117 -71 -179 -70 -299 0 -186 58 -325 193 -461 69 -70 101 -94 170 -128
98 -48 194 -71 298 -71 85 0 203 22 264 50 l43 20 51 -57 51 -56 16 44 c54
145 136 393 132 398 -6 6 -487 -38 -494 -45 -3 -2 12 -21 32 -42 20 -21 37
-43 37 -49 0 -17 -78 -26 -174 -21 -238 12 -426 215 -426 459 0 265 178 493
435 559 85 22 185 25 254 9 67 -15 60 -4 -13 21 -81 27 -187 37 -286 28z"/>
<path d="M2778 4343 c-8 -10 -48 -110 -88 -223 -40 -113 -90 -254 -111 -313
l-39 -108 72 3 71 3 22 65 22 65 129 3 130 3 23 -71 22 -70 71 0 c52 0 69 3
66 13 -3 6 -56 155 -118 330 l-113 317 -72 0 c-56 0 -75 -4 -87 -17z m127
-255 l43 -133 -85 -3 c-47 -2 -88 0 -91 2 -3 3 14 66 38 141 24 74 45 133 48
131 2 -3 23 -65 47 -138z"/>
<path d="M3334 4201 c-75 -34 -108 -105 -85 -182 16 -52 63 -83 170 -109 119
-30 149 -54 115 -91 -25 -27 -112 -26 -148 2 -14 11 -26 27 -26 35 0 11 -15
14 -65 14 -65 0 -65 0 -65 -29 0 -40 38 -92 88 -119 73 -41 243 -30 304 18 75
58 75 188 0 232 -15 9 -70 28 -122 43 -105 30 -142 54 -124 83 25 38 121 31
155 -12 18 -22 28 -26 76 -26 l56 0 -7 33 c-16 82 -90 127 -206 127 -51 0 -88
-6 -116 -19z"/>
<path d="M3830 4198 c-24 -13 -52 -35 -63 -49 -44 -61 -27 -161 34 -198 18
-11 62 -27 98 -36 132 -34 168 -59 135 -96 -12 -13 -31 -19 -63 -19 -68 0 -89
9 -103 41 -12 28 -16 29 -75 29 -63 0 -63 0 -63 -29 0 -40 38 -92 88 -119 34
-19 58 -24 120 -24 103 0 159 16 198 58 37 38 49 78 39 132 -12 68 -41 90
-175 127 -52 15 -103 34 -112 42 -38 34 -11 65 58 65 38 0 52 -6 78 -31 28
-27 39 -31 85 -31 l54 0 -7 33 c-16 82 -89 127 -206 127 -59 0 -86 -5 -120
-22z"/>
<path d="M4240 4038 c1 -239 14 -278 109 -320 81 -37 214 -21 271 32 42 39 50
86 50 289 l0 184 -51 -5 c-28 -3 -55 -12 -60 -19 -5 -8 -9 -79 -9 -159 0 -156
-10 -214 -40 -230 -33 -17 -98 -12 -120 10 -19 19 -20 33 -20 210 l0 190 -65
0 -65 0 0 -182z"/>
<path d="M4940 4213 c-93 -16 -153 -56 -183 -122 -18 -39 -22 -71 -25 -218
l-4 -173 66 0 66 0 0 145 c0 199 11 224 108 240 l42 7 0 64 c0 70 1 69 -70 57z"/>
<path d="M5163 4199 c-29 -14 -48 -33 -62 -62 l-21 -42 60 -3 c42 -2 67 2 82
13 43 29 148 12 148 -25 0 -30 -33 -48 -117 -63 -99 -19 -138 -38 -163 -80
-24 -39 -26 -116 -5 -161 47 -100 258 -109 355 -17 48 46 63 114 58 261 -4
124 -16 151 -81 181 -61 27 -197 26 -254 -2z m207 -288 c0 -42 -5 -54 -31 -80
-40 -40 -108 -44 -133 -9 -36 51 -7 91 84 117 36 10 68 19 73 20 4 0 7 -21 7
-48z"/>
<path d="M5662 4199 c-29 -15 -51 -36 -70 -68 -26 -45 -27 -50 -31 -238 l-3
-193 65 0 66 0 3 186 c3 181 4 186 27 205 34 28 101 26 129 -4 21 -22 22 -33
22 -179 0 -184 5 -197 83 -205 l47 -6 0 179 c0 99 -5 196 -11 217 -14 52 -60
101 -107 115 -65 20 -171 15 -220 -9z"/>
<path d="M6190 4204 c-46 -20 -77 -50 -103 -99 -18 -33 -22 -57 -22 -145 0
-96 2 -109 28 -155 34 -62 76 -91 151 -106 109 -22 210 20 250 105 24 52 21
56 -37 56 -38 0 -62 -6 -87 -23 -49 -33 -78 -38 -117 -22 -43 18 -63 64 -63
143 0 67 21 126 49 142 36 19 90 12 117 -15 21 -22 34 -25 89 -25 52 0 65 3
65 15 0 42 -62 115 -113 134 -41 16 -166 13 -207 -5z"/>
<path d="M6705 4202 c-84 -40 -117 -105 -119 -232 -1 -133 38 -215 118 -250
135 -59 271 -15 321 103 l15 37 -55 0 c-43 0 -64 -6 -94 -26 -83 -54 -171 -18
-171 71 l0 25 166 0 167 0 -7 68 c-8 82 -39 146 -89 186 -34 27 -45 30 -125
33 -70 3 -95 0 -127 -15z m156 -92 c19 -10 49 -59 49 -80 0 -6 -35 -10 -95
-10 -60 0 -95 4 -95 10 0 20 30 69 47 79 23 13 69 14 94 1z"/>
</g>
</svg>
